<?xml version="1.0" encoding="UTF-8"?>
<!--
{
    "name": "image_3_outline",
    "difficulty": 5,
    "regions": [
        {
            "id": "region_1",
            "number": 1,
            "color": "#f0e7d8",
            "area": 28353.0,
            "is_background": false
        },
        {
            "id": "region_1",
            "number": 1,
            "color": "#f0e7d8",
            "area": 10511.5,
            "is_background": false
        },
        {
            "id": "region_2",
            "number": 2,
            "color": "#e54e30",
            "area": 21203.0,
            "is_background": false
        },
        {
            "id": "region_2",
            "number": 2,
            "color": "#e54e30",
            "area": 1943.0,
            "is_background": false
        },
        {
            "id": "region_2",
            "number": 2,
            "color": "#e54e30",
            "area": 1842.5,
            "is_background": false
        },
        {
            "id": "region_2",
            "number": 2,
            "color": "#e54e30",
            "area": 1431.5,
            "is_background": false
        },
        {
            "id": "region_2",
            "number": 2,
            "color": "#e54e30",
            "area": 1311.5,
            "is_background": false
        },
        {
            "id": "region_2",
            "number": 2,
            "color": "#e54e30",
            "area": 1186.0,
            "is_background": false
        },
        {
            "id": "region_1",
            "number": 1,
            "color": "#f0e7d8",
            "area": 1298.0,
            "is_background": false
        },
        {
            "id": "region_2",
            "number": 2,
            "color": "#e54e30",
            "area": 1183.5,
            "is_background": false
        },
        {
            "id": "region_2",
            "number": 2,
            "color": "#e54e30",
            "area": 907.5,
            "is_background": false
        },
        {
            "id": "region_2",
            "number": 2,
            "color": "#e54e30",
            "area": 807.0,
            "is_background": false
        },
        {
            "id": "region_3",
            "number": 3,
            "color": "#b992ac",
            "area": 621.5,
            "is_background": false
        },
        {
            "id": "region_2",
            "number": 2,
            "color": "#e54e30",
            "area": 378.0,
            "is_background": false
        },
        {
            "id": "region_2",
            "number": 2,
            "color": "#e54e30",
            "area": 262.0,
            "is_background": false
        },
        {
            "id": "region_2",
            "number": 2,
            "color": "#e54e30",
            "area": 218.5,
            "is_background": false
        },
        {
            "id": "region_2",
            "number": 2,
            "color": "#e54e30",
            "area": 214.0,
            "is_background": false
        },
        {
            "id": "region_3",
            "number": 3,
            "color": "#b992ac",
            "area": 178.5,
            "is_background": false
        },
        {
            "id": "region_4",
            "number": 4,
            "color": "#e4c600",
            "area": 129.5,
            "is_background": false
        },
        {
            "id": "region_2",
            "number": 2,
            "color": "#e54e30",
            "area": 73.5,
            "is_background": false
        },
        {
            "id": "region_2",
            "number": 2,
            "color": "#e54e30",
            "area": 41.0,
            "is_background": false
        },
        {
            "id": "region_5",
            "number": 5,
            "color": "#700b15",
            "area": 50.5,
            "is_background": false
        },
        {
            "id": "region_1",
            "number": 1,
            "color": "#f0e7d8",
            "area": 38.5,
            "is_background": false
        },
        {
            "id": "region_2",
            "number": 2,
            "color": "#e54e30",
            "area": 25.0,
            "is_background": false
        },
        {
            "id": "region_2",
            "number": 2,
            "color": "#e54e30",
            "area": 20.0,
            "is_background": false
        },
        {
            "id": "region_2",
            "number": 2,
            "color": "#e54e30",
            "area": 13.0,
            "is_background": false
        },
        {
            "id": "region_2",
            "number": 2,
            "color": "#e54e30",
            "area": 13.0,
            "is_background": false
        }
    ]
}
-->
<svg baseProfile="full" height="564" version="1.1" viewBox="0 0 564 564" width="564" xmlns="http://www.w3.org/2000/svg" xmlns:ev="http://www.w3.org/2001/xml-events" xmlns:xlink="http://www.w3.org/1999/xlink"><defs /><path d="M 265,101 L 277,99 L 290,98 L 303,97 L 315,99 L 327,101 L 337,105 L 347,109 L 351,114 L 350,118 L 353,129 L 357,140 L 365,152 L 369,153 L 379,165 L 375,164 L 376,166 L 370,172 L 367,183 L 365,183 L 366,187 L 364,187 L 365,197 L 356,210 L 355,225 L 356,235 L 358,245 L 366,255 L 374,266 L 381,270 L 381,273 L 387,273 L 396,278 L 402,290 L 410,297 L 418,305 L 426,313 L 414,316 L 402,319 L 391,322 L 377,321 L 364,320 L 353,326 L 352,345 L 359,359 L 361,358 L 372,369 L 372,379 L 368,388 L 356,389 L 347,394 L 336,394 L 325,394 L 318,381 L 318,372 L 325,361 L 327,350 L 329,339 L 336,329 L 344,322 L 352,315 L 353,301 L 347,290 L 348,287 L 341,278 L 342,275 L 334,267 L 326,260 L 318,253 L 311,246 L 307,239 L 307,229 L 308,219 L 314,205 L 324,194 L 326,178 L 316,169 L 306,160 L 297,151 L 291,149 L 296,158 L 296,155 L 304,165 L 306,164 L 315,171 L 324,178 L 324,186 L 318,195 L 313,204 L 308,213 L 306,225 L 305,238 L 313,254 L 314,252 L 321,259 L 328,267 L 335,274 L 342,282 L 348,295 L 349,313 L 335,325 L 330,334 L 325,343 L 323,361 L 316,373 L 317,383 L 318,393 L 313,396 L 294,397 L 275,391 L 267,386 L 267,382 L 264,383 L 261,380 L 260,363 L 256,352 L 253,342 L 249,332 L 246,322 L 246,312 L 249,308 L 257,308 L 266,317 L 275,326 L 284,335 L 298,339 L 310,333 L 323,328 L 329,323 L 334,313 L 331,301 L 328,290 L 321,281 L 314,273 L 298,264 L 286,250 L 282,240 L 279,231 L 277,215 L 271,203 L 266,191 L 264,192 L 257,184 L 250,176 L 241,172 L 227,172 L 220,176 L 216,183 L 212,168 L 209,154 L 217,148 L 225,142 L 229,130 L 233,119 L 238,112 L 251,106 Z" fill="none" id="region_1" stroke="black" stroke-width="1" /><path d="M 178,225 L 183,225 L 188,230 L 188,234 L 190,235 L 193,244 L 195,257 L 197,271 L 197,281 L 198,291 L 199,301 L 200,311 L 201,322 L 205,334 L 204,336 L 205,340 L 207,341 L 211,352 L 211,356 L 217,364 L 220,370 L 229,373 L 232,371 L 236,365 L 238,365 L 238,363 L 242,364 L 251,373 L 260,383 L 265,386 L 265,388 L 269,391 L 282,395 L 283,397 L 285,396 L 293,398 L 295,400 L 295,413 L 294,418 L 291,424 L 291,428 L 289,428 L 290,430 L 288,430 L 289,432 L 287,434 L 284,434 L 283,432 L 278,433 L 268,424 L 267,421 L 262,415 L 260,416 L 253,415 L 248,417 L 242,424 L 238,434 L 234,439 L 235,440 L 234,443 L 232,444 L 232,449 L 231,451 L 229,451 L 226,457 L 227,458 L 226,460 L 222,464 L 217,466 L 212,465 L 210,463 L 206,462 L 199,455 L 196,448 L 194,448 L 192,445 L 193,443 L 190,441 L 188,438 L 188,434 L 186,434 L 181,419 L 182,401 L 180,399 L 179,389 L 180,386 L 177,380 L 175,371 L 175,359 L 175,347 L 178,332 L 180,330 L 179,326 L 179,315 L 179,305 L 180,301 L 178,288 L 176,276 L 175,264 L 170,251 L 170,248 L 168,245 L 168,242 L 173,230 Z" fill="none" id="region_1" stroke="black" stroke-width="1" /><path d="M 167,249 L 171,257 L 173,266 L 172,268 L 174,271 L 175,281 L 177,291 L 177,301 L 177,311 L 177,321 L 177,332 L 173,347 L 172,355 L 173,365 L 172,370 L 174,373 L 177,383 L 178,396 L 179,409 L 178,419 L 180,419 L 180,422 L 183,430 L 182,432 L 184,433 L 184,435 L 187,439 L 187,442 L 191,446 L 194,451 L 194,453 L 190,456 L 185,456 L 179,453 L 178,450 L 176,452 L 158,449 L 158,451 L 155,450 L 153,451 L 145,460 L 136,458 L 125,458 L 107,462 L 98,466 L 92,466 L 89,467 L 87,469 L 83,470 L 72,470 L 69,469 L 63,465 L 63,461 L 61,461 L 61,454 L 62,449 L 66,443 L 66,441 L 68,440 L 67,438 L 70,433 L 72,432 L 73,427 L 78,419 L 78,416 L 80,416 L 79,404 L 73,392 L 70,388 L 68,387 L 64,380 L 63,381 L 60,375 L 57,373 L 57,369 L 55,369 L 50,359 L 51,356 L 49,354 L 48,350 L 49,339 L 50,328 L 52,324 L 55,321 L 55,319 L 57,319 L 59,314 L 67,307 L 76,297 L 81,293 L 84,293 L 86,289 L 90,286 L 103,279 L 121,275 L 122,274 L 125,275 L 125,273 L 133,272 L 143,268 L 153,262 L 151,261 L 159,256 L 158,254 L 161,253 L 164,248 L 166,250 Z" fill="none" id="region_2" stroke="black" stroke-width="1" /><path d="M 440,320 L 440,325 L 439,330 L 437,334 L 434,337 L 434,339 L 432,342 L 431,341 L 416,342 L 407,345 L 403,348 L 400,351 L 400,352 L 398,354 L 399,356 L 396,361 L 395,366 L 393,370 L 383,370 L 376,368 L 371,365 L 366,359 L 364,359 L 359,352 L 358,348 L 356,346 L 354,339 L 354,333 L 355,330 L 357,328 L 359,330 L 357,327 L 359,325 L 361,324 L 365,325 L 365,337 L 364,341 L 367,346 L 372,353 L 374,353 L 379,355 L 384,355 L 391,351 L 390,346 L 385,341 L 375,337 L 372,334 L 370,335 L 369,331 L 367,329 L 370,327 L 368,326 L 371,323 L 375,323 L 380,325 L 383,328 L 385,328 L 387,330 L 389,329 L 392,331 L 399,331 L 410,329 L 411,327 L 421,323 L 426,323 L 427,321 L 429,321 L 432,322 L 431,320 L 433,319 L 438,318 Z" fill="none" id="region_2" stroke="black" stroke-width="1" /><path d="M 83,88 L 89,87 L 91,89 L 102,90 L 116,94 L 118,96 L 120,95 L 121,97 L 125,96 L 132,99 L 140,101 L 146,101 L 158,104 L 164,107 L 168,106 L 178,107 L 196,110 L 198,112 L 202,111 L 203,113 L 210,112 L 211,114 L 221,113 L 222,114 L 233,116 L 230,124 L 228,126 L 227,129 L 228,131 L 226,136 L 223,138 L 222,136 L 220,137 L 213,133 L 207,131 L 204,131 L 201,130 L 193,126 L 188,125 L 187,123 L 185,124 L 180,123 L 178,122 L 176,120 L 174,120 L 173,118 L 170,120 L 169,119 L 167,119 L 161,116 L 147,113 L 144,111 L 141,110 L 130,108 L 119,104 L 118,102 L 114,103 L 104,99 L 95,96 L 86,91 Z" fill="none" id="region_2" stroke="black" stroke-width="1" /><path d="M 466,93 L 460,96 L 458,95 L 456,96 L 453,99 L 442,103 L 435,104 L 430,107 L 424,109 L 419,109 L 415,112 L 413,113 L 405,115 L 400,118 L 398,118 L 395,120 L 393,119 L 392,121 L 390,121 L 388,123 L 386,124 L 379,126 L 377,127 L 372,131 L 367,133 L 363,137 L 361,138 L 359,136 L 358,134 L 359,132 L 354,124 L 352,118 L 353,114 L 355,113 L 358,114 L 362,113 L 363,111 L 364,112 L 366,110 L 375,107 L 383,106 L 385,107 L 389,105 L 406,102 L 418,101 L 433,98 L 437,96 L 441,97 L 443,95 L 445,96 L 451,93 L 460,91 L 464,91 Z" fill="none" id="region_2" stroke="black" stroke-width="1" /><path d="M 432,346 L 433,354 L 434,357 L 439,365 L 443,374 L 443,376 L 442,378 L 443,376 L 443,380 L 442,380 L 440,381 L 435,379 L 429,378 L 410,378 L 403,380 L 397,381 L 393,379 L 394,374 L 396,372 L 395,371 L 397,369 L 397,365 L 399,365 L 398,361 L 400,356 L 401,354 L 404,350 L 407,347 L 410,346 L 419,344 L 430,344 Z" fill="none" id="region_2" stroke="black" stroke-width="1" /><path d="M 510,153 L 511,156 L 512,158 L 514,158 L 516,163 L 515,165 L 513,168 L 510,171 L 501,173 L 501,178 L 503,184 L 503,190 L 502,192 L 499,194 L 498,194 L 489,197 L 483,197 L 476,195 L 472,196 L 469,194 L 471,192 L 473,193 L 477,188 L 481,181 L 481,179 L 480,178 L 480,176 L 481,174 L 483,172 L 483,165 L 480,163 L 480,159 L 483,159 L 491,155 L 491,153 L 498,147 L 502,148 L 503,148 L 505,151 Z" fill="none" id="region_2" stroke="black" stroke-width="1" /><path d="M 382,167 L 383,169 L 385,169 L 387,170 L 388,172 L 386,177 L 385,183 L 385,196 L 384,204 L 382,208 L 382,212 L 379,218 L 378,221 L 377,228 L 377,240 L 376,242 L 373,244 L 372,242 L 370,242 L 366,239 L 365,236 L 362,234 L 360,232 L 358,232 L 358,229 L 359,223 L 359,215 L 358,210 L 362,206 L 363,203 L 365,203 L 364,201 L 367,197 L 367,191 L 369,187 L 368,185 L 369,180 L 372,174 L 374,171 L 376,169 L 380,167 Z" fill="none" id="region_1" stroke="black" stroke-width="1" /><path d="M 206,157 L 208,159 L 209,163 L 209,166 L 211,170 L 212,174 L 211,177 L 213,179 L 213,181 L 212,183 L 212,199 L 213,207 L 216,219 L 218,223 L 218,225 L 213,228 L 217,228 L 219,230 L 220,234 L 223,238 L 226,248 L 225,259 L 222,257 L 219,256 L 216,253 L 216,249 L 214,249 L 212,244 L 210,237 L 209,228 L 208,224 L 205,217 L 206,214 L 204,214 L 205,212 L 204,210 L 202,208 L 198,198 L 198,194 L 196,190 L 195,185 L 195,175 L 196,171 L 198,167 Z" fill="none" id="region_2" stroke="black" stroke-width="1" /><path d="M 57,190 L 62,184 L 63,184 L 65,182 L 69,181 L 71,183 L 74,184 L 82,184 L 87,186 L 86,189 L 84,191 L 84,194 L 85,196 L 103,196 L 105,199 L 107,199 L 109,201 L 110,204 L 110,206 L 111,210 L 110,217 L 108,215 L 107,211 L 105,209 L 104,209 L 103,207 L 100,206 L 95,206 L 80,213 L 80,215 L 75,215 L 73,213 L 74,210 L 71,209 L 70,207 L 69,202 L 68,199 L 63,198 L 58,195 L 57,192 Z" fill="none" id="region_2" stroke="black" stroke-width="1" /><path d="M 107,105 L 109,103 L 121,107 L 125,107 L 128,109 L 131,109 L 134,111 L 137,112 L 144,113 L 151,115 L 162,119 L 164,119 L 164,121 L 166,120 L 169,121 L 171,123 L 176,123 L 178,125 L 180,124 L 191,128 L 193,130 L 199,130 L 204,132 L 210,136 L 213,135 L 220,138 L 220,142 L 217,143 L 217,144 L 215,146 L 212,146 L 210,145 L 208,143 L 204,143 L 202,142 L 198,139 L 189,137 L 189,135 L 187,136 L 185,135 L 184,134 L 180,133 L 179,131 L 176,131 L 171,130 L 168,128 L 165,127 L 159,126 L 156,124 L 153,124 L 148,121 L 142,120 L 137,117 L 126,114 L 124,113 L 121,110 L 119,110 L 115,109 L 113,108 L 112,107 L 111,107 Z" fill="none" id="region_2" stroke="black" stroke-width="1" /><path d="M 411,392 L 408,395 L 403,399 L 401,399 L 398,398 L 399,401 L 397,402 L 393,402 L 393,404 L 391,405 L 384,405 L 381,407 L 371,407 L 368,405 L 365,404 L 363,405 L 359,403 L 356,401 L 353,398 L 355,396 L 358,395 L 363,394 L 376,392 L 385,391 L 396,391 L 400,389 Z" fill="none" id="region_3" stroke="black" stroke-width="1" /><path d="M 431,186 L 432,184 L 435,181 L 436,181 L 438,179 L 441,182 L 438,182 L 438,185 L 441,185 L 453,184 L 464,181 L 470,180 L 477,180 L 479,181 L 473,186 L 466,194 L 464,195 L 463,196 L 454,196 L 447,194 L 451,191 L 451,189 L 448,188 L 450,187 L 447,189 L 444,189 L 444,187 L 438,187 L 437,188 Z" fill="none" id="region_2" stroke="black" stroke-width="1" /><path d="M 480,167 L 479,171 L 478,172 L 475,173 L 467,177 L 462,178 L 459,179 L 457,181 L 453,182 L 446,181 L 449,180 L 450,177 L 451,177 L 462,169 L 467,167 L 470,164 L 473,164 L 477,163 L 478,163 Z" fill="none" id="region_2" stroke="black" stroke-width="1" /><path d="M 376,369 L 377,370 L 380,370 L 393,372 L 393,375 L 392,379 L 391,381 L 386,383 L 381,383 L 381,385 L 377,385 L 376,386 L 373,385 L 375,384 L 375,379 Z" fill="none" id="region_2" stroke="black" stroke-width="1" /><path d="M 430,316 L 428,317 L 427,319 L 420,321 L 418,323 L 413,325 L 410,325 L 407,327 L 404,328 L 400,329 L 395,330 L 392,329 L 392,327 L 390,328 L 389,326 L 387,325 L 389,323 L 401,323 L 405,321 L 408,322 L 411,319 L 414,318 L 419,317 L 422,318 L 422,316 L 426,316 L 427,315 Z" fill="none" id="region_2" stroke="black" stroke-width="1" /><path d="M 449,352 L 452,353 L 454,359 L 455,363 L 455,372 L 453,376 L 452,374 L 453,376 L 451,379 L 449,380 L 450,381 L 448,382 L 446,379 L 448,377 L 448,366 L 447,365 L 447,354 Z" fill="none" id="region_3" stroke="black" stroke-width="1" /><path d="M 246,221 L 251,226 L 252,229 L 252,233 L 257,238 L 252,240 L 250,239 L 248,241 L 246,241 L 243,240 L 246,237 L 246,229 L 244,225 L 244,223 Z" fill="none" id="region_4" stroke="black" stroke-width="1" /><path d="M 381,132 L 379,134 L 376,134 L 374,137 L 372,135 L 372,138 L 371,138 L 366,142 L 362,142 L 362,140 L 367,136 L 370,135 L 371,133 L 374,132 L 376,130 L 378,131 L 379,130 Z" fill="none" id="region_2" stroke="black" stroke-width="1" /><path d="M 392,126 L 388,129 L 385,130 L 380,131 L 381,130 L 380,129 L 386,125 L 388,124 L 390,124 Z" fill="none" id="region_2" stroke="black" stroke-width="1" /><path d="M 139,214 L 136,217 L 132,216 L 131,219 L 130,218 L 127,219 L 124,216 L 120,216 L 122,214 L 125,214 L 126,215 L 130,215 L 131,213 L 136,214 Z" fill="none" id="region_5" stroke="black" stroke-width="1" /><path d="M 236,220 L 238,220 L 240,222 L 240,225 L 238,227 L 235,227 L 233,225 L 233,223 Z" fill="none" id="region_1" stroke="black" stroke-width="1" /><path d="M 443,104 L 443,107 L 441,108 L 437,109 L 432,107 L 436,107 L 439,105 Z" fill="none" id="region_2" stroke="black" stroke-width="1" /><path d="M 443,348 L 445,350 L 444,352 L 440,356 L 438,354 L 441,352 Z" fill="none" id="region_2" stroke="black" stroke-width="1" /><path d="M 431,316 L 433,314 L 439,315 L 435,317 Z" fill="none" id="region_2" stroke="black" stroke-width="1" /><path d="M 390,124 L 393,123 L 395,122 L 397,124 L 394,125 L 392,126 Z" fill="none" id="region_2" stroke="black" stroke-width="1" /></svg>